<?xml version="1.0" standalone="no"?>
<!DOCTYPE svg PUBLIC "-//W3C//DTD SVG 20010904//EN"
 "http://www.w3.org/TR/2001/REC-SVG-20010904/DTD/svg10.dtd">
<svg version="1.0" xmlns="http://www.w3.org/2000/svg"
 width="16.000000pt" height="16.000000pt" viewBox="0 0 16.000000 16.000000"
 preserveAspectRatio="xMidYMid meet">
<metadata>
Created by potrace 1.11, written by Peter Selinger 2001-2013
</metadata>
<g transform="translate(0.000000,16.000000) scale(0.002667,-0.002667)"
fill="#000000" stroke="none">
<path d="M0 3000 l0 -3000 3000 0 3000 0 0 3000 0 3000 -3000 0 -3000 0 0
-3000z m3970 1870 c0 -5 9 -10 19 -10 11 0 22 -4 25 -9 4 -5 25 -12 49 -16 45
-8 107 -62 107 -94 0 -9 5 -22 11 -28 7 -7 9 -30 6 -60 -3 -26 -9 -77 -12
-112 -4 -36 -12 -76 -19 -90 -7 -15 -16 -48 -19 -76 -5 -44 -30 -111 -46 -125
-14 -12 -31 -51 -31 -70 0 -12 16 -37 35 -57 19 -19 37 -44 40 -54 4 -11 10
-19 15 -19 5 0 11 -13 15 -30 4 -16 10 -30 15 -30 15 0 34 -125 40 -275 4 -82
12 -171 18 -196 12 -51 18 -226 8 -236 -3 -3 -6 -31 -6 -61 0 -56 -3 -69 -36
-172 -18 -56 -64 -139 -96 -174 -10 -11 -18 -23 -18 -26 0 -4 -46 -48 -101
-99 -76 -68 -108 -91 -129 -91 -31 0 -44 26 -34 67 4 13 -1 34 -10 48 -22 33
-21 109 1 135 13 15 30 20 67 20 49 0 75 16 76 48 0 7 18 51 40 97 30 63 40
96 40 134 0 47 -17 81 -41 81 -5 0 -9 7 -9 16 0 24 -33 114 -42 114 -5 0 -8 7
-8 15 0 30 -27 13 -90 -57 -36 -39 -76 -81 -89 -92 -41 -36 -55 -53 -76 -93
-21 -40 -87 -111 -145 -154 l-35 -27 14 -38 c22 -60 16 -141 -14 -180 -14 -18
-25 -39 -25 -46 0 -7 -11 -25 -24 -39 -32 -34 -54 -85 -59 -139 -9 -75 -29
-153 -54 -199 -13 -24 -23 -50 -23 -56 0 -7 -13 -40 -30 -73 -16 -34 -30 -66
-30 -71 0 -6 -4 -11 -10 -11 -5 0 -12 -11 -16 -25 -3 -14 -10 -25 -15 -25 -5
0 -9 -7 -9 -15 0 -8 -4 -15 -9 -15 -5 0 -13 -10 -17 -22 -4 -13 -10 -25 -14
-28 -10 -7 -100 -179 -100 -191 0 -20 -74 -83 -112 -95 -10 -4 -18 -10 -18
-14 0 -5 -13 -11 -30 -15 -16 -4 -30 -11 -30 -16 0 -5 -5 -9 -10 -9 -6 0 -28
-11 -48 -24 -21 -13 -85 -43 -143 -66 -57 -23 -118 -48 -136 -56 -17 -8 -36
-14 -42 -14 -6 0 -11 -4 -11 -10 0 -5 -8 -10 -17 -10 -10 0 -29 -12 -42 -25
-13 -14 -28 -25 -33 -25 -15 0 -81 -33 -97 -48 -11 -10 -11 -19 -3 -38 11 -22
10 -24 -15 -24 -15 0 -42 -5 -60 -12 -27 -10 -32 -16 -27 -33 4 -11 10 -21 15
-23 5 -2 3 -12 -3 -22 -9 -14 -9 -25 0 -46 10 -20 10 -35 2 -60 l-12 -34 -69
0 c-39 0 -69 4 -69 10 0 6 -12 10 -26 10 -16 0 -38 11 -54 29 -15 15 -42 34
-59 42 -17 8 -31 20 -31 26 0 7 -7 13 -15 13 -8 0 -15 5 -15 10 0 6 -7 10 -15
10 -8 0 -15 8 -15 19 0 10 -7 24 -15 31 -8 7 -15 22 -15 34 0 28 96 136 121
136 10 0 19 5 19 10 0 6 6 10 14 10 8 0 43 27 77 60 l63 60 -12 34 c-17 46 -7
126 25 196 73 162 120 227 171 236 28 5 54 25 109 81 40 40 79 73 87 73 8 0
16 3 18 8 2 4 23 17 48 29 25 12 59 36 75 53 27 29 109 90 121 90 2 0 23 12
45 26 37 23 41 29 35 56 -3 17 -17 46 -31 64 -14 18 -25 37 -25 43 0 6 -3 11
-8 11 -7 0 -16 15 -46 78 -11 24 -21 32 -42 32 -15 0 -43 12 -62 26 -34 27
-34 27 -29 93 3 39 14 84 27 111 12 24 25 62 28 85 2 22 8 45 12 50 4 6 11 35
15 65 4 30 11 61 15 70 31 63 52 97 83 133 75 87 84 103 92 152 7 47 61 155
77 155 5 0 8 7 8 15 0 8 4 15 10 15 5 0 12 11 16 25 3 14 10 25 14 25 8 0 40
73 40 92 0 20 -70 0 -118 -35 -46 -33 -49 -33 -79 -19 -17 8 -37 25 -44 38 -7
13 -19 24 -27 24 -16 0 -69 -28 -90 -47 -7 -7 -17 -13 -21 -13 -4 0 -41 -34
-82 -76 -95 -98 -95 -97 -100 -110 -9 -23 -115 -174 -122 -174 -4 0 -15 -6
-23 -12 -8 -7 -20 -18 -27 -23 -10 -9 -29 -18 -122 -56 -58 -23 -155 -50 -171
-47 -15 2 -18 13 -18 54 0 34 6 57 16 68 9 8 14 24 11 34 -6 25 40 72 71 72
14 0 27 4 30 9 3 5 17 12 32 15 65 17 189 120 283 236 37 46 107 122 173 188
20 20 54 46 75 57 21 10 56 33 78 50 41 33 91 59 135 70 52 13 131 61 152 91
17 24 32 34 62 38 22 4 45 11 52 17 16 13 155 39 209 39 24 0 46 4 49 8 3 5
53 12 110 15 108 6 138 15 168 51 20 24 23 47 7 63 -6 6 -11 44 -11 86 1 72
16 137 47 196 20 39 81 91 116 98 16 3 32 10 35 14 7 12 104 11 104 -1z m12
-3238 c64 -31 126 -90 155 -150 22 -47 27 -71 28 -138 0 -45 -5 -87 -11 -95
-6 -8 -14 -25 -18 -39 -3 -14 -19 -40 -36 -57 l-30 -33 -203 0 -204 0 -26 30
c-15 16 -27 34 -27 40 0 5 -4 10 -10 10 -5 0 -13 18 -16 40 -4 22 -11 43 -15
46 -12 7 -11 121 1 129 6 3 10 13 10 22 0 51 87 154 161 191 57 28 185 30 241
4z m-2225 -209 c-3 -10 -5 -4 -5 12 0 17 2 24 5 18 2 -7 2 -21 0 -30z"/>
<path d="M2683 2082 c-23 -15 -56 -44 -74 -65 -18 -21 -56 -49 -85 -62 -29
-13 -70 -42 -92 -64 -22 -23 -44 -41 -49 -41 -4 0 -19 -18 -33 -40 -13 -22
-28 -40 -32 -40 -4 0 -8 -4 -8 -10 0 -16 28 -11 52 9 13 11 34 30 48 41 36 32
120 84 165 104 22 10 47 21 56 26 9 5 33 12 52 15 54 10 104 61 112 113 l7 42
-39 -1 c-23 0 -54 -11 -80 -27z"/>
</g>
</svg>
